<?xml version="1.0" encoding="UTF-8" standalone="no"?>
<!-- Created with Inkscape (http://www.inkscape.org/) -->

<svg
   xmlns:dc="http://purl.org/dc/elements/1.1/"
   xmlns:cc="http://creativecommons.org/ns#"
   xmlns:rdf="http://www.w3.org/1999/02/22-rdf-syntax-ns#"
   xmlns:svg="http://www.w3.org/2000/svg"
   xmlns="http://www.w3.org/2000/svg"
   xmlns:xlink="http://www.w3.org/1999/xlink"
   xmlns:sodipodi="http://sodipodi.sourceforge.net/DTD/sodipodi-0.dtd"
   xmlns:inkscape="http://www.inkscape.org/namespaces/inkscape"
   width="744.09448819"
   height="1052.3622047"
   id="svg2"
   version="1.1"
   inkscape:version="0.47pre4 r22446"
   sodipodi:docname="Nuovo documento 1">
  <sodipodi:namedview
     id="base"
     pagecolor="#ffffff"
     bordercolor="#666666"
     borderopacity="1.0"
     inkscape:pageopacity="0.0"
     inkscape:pageshadow="2"
     inkscape:zoom="2.8116667"
     inkscape:cx="261.45228"
     inkscape:cy="391.42857"
     inkscape:document-units="px"
     inkscape:current-layer="layer1"
     showgrid="false"
     inkscape:window-width="1680"
     inkscape:window-height="974"
     inkscape:window-x="0"
     inkscape:window-y="0"
     inkscape:window-maximized="1" />
  <defs
     id="defs4">
    <inkscape:perspective
       id="perspective10"
       inkscape:persp3d-origin="372.04724 : 350.78739 : 1"
       inkscape:vp_z="744.09448 : 526.18109 : 1"
       inkscape:vp_y="0 : 1000 : 0"
       inkscape:vp_x="0 : 526.18109 : 1"
       sodipodi:type="inkscape:persp3d" />
    <inkscape:perspective
       sodipodi:type="inkscape:persp3d"
       inkscape:vp_x="0 : 0.5 : 1"
       inkscape:vp_y="0 : 1000 : 0"
       inkscape:vp_z="1 : 0.5 : 1"
       inkscape:persp3d-origin="0.5 : 0.33333333 : 1"
       id="perspective2824" />
  </defs>
  <metadata
     id="metadata7">
    <rdf:RDF>
      <cc:Work
         rdf:about="">
        <dc:format>image/svg+xml</dc:format>
        <dc:type
           rdf:resource="http://purl.org/dc/dcmitype/StillImage" />
        <dc:title></dc:title>
      </cc:Work>
    </rdf:RDF>
  </metadata>
  <g
     id="layer1"
     inkscape:groupmode="layer"
     inkscape:label="Livello 1">
    <image
       inkscape:export-ydpi="74.020081"
       inkscape:export-xdpi="74.020081"
       inkscape:export-filename="/home/mauro/work/dam_googlecode_bk/src/dam/files/images/opendam.png"
       xlink:href="file:///home/mauro/work/dam_googlecode_bk/src/dam/files/images/logo_blue.jpg"
       width="43.639595"
       height="28.263189"
       id="image2826"
       x="237.86011"
       y="620.18671" />
    <text
       inkscape:export-ydpi="74.020081"
       inkscape:export-xdpi="74.020081"
       inkscape:export-filename="/home/mauro/work/dam_googlecode_bk/src/dam/files/images/opendam.png"
       transform="scale(0.98405892,1.0161993)"
       sodipodi:linespacing="100%"
       id="text2830"
       y="630.89331"
       x="286.63052"
       style="font-size:21.64183998px;font-style:normal;font-variant:normal;font-weight:normal;font-stretch:normal;text-align:start;line-height:100%;writing-mode:lr-tb;text-anchor:start;fill:#000000;fill-opacity:1;stroke:none;font-family:Purisa;-inkscape-font-specification:Purisa"
       xml:space="preserve"><tspan
         y="630.89331"
         x="286.63052"
         id="tspan2832"
         sodipodi:role="line">OpenDam</tspan></text>
    <path
       id="path2852"
       d="M40.05376 8.14765666667L59.9280666667 8.14765666667L59.9280666667 95.9849955556L40.05376 95.9849955556L40.05376 8.14765666667ZM8.0 0.0L92.0 0.0L92.0 16.0L88.0 16.0L87.99512 13.6111111111C88.2037911111 10.5258206667 86.9620088889 8.30533533333 83.90752 8.135866L16.6452977778 8.135866C12.9153555556 8.05868377778 12.1598488889 10.0499642222 12.00488 13.6111111111L12.0 16.0L8.0 16.0L8.0 0.0ZM8.0 88.0L12.0 88.0L12.00488 90.3888888889C11.7945622222 93.4958911111 13.0518444444 95.6752555556 16.1164577778 95.8430866667L83.1033866667 95.8430866667C86.9666644444 95.9641755556 87.8294333333 94.1963177778 87.99512 90.3888888889L88.0 88.0L92.0 88.0L92.0 104.0L8.0 104.0L8.0 88.0ZM116.826313306 56.0L132.826313306 56.0L132.826313306 88.0L116.826313306 88.0L116.826313306 56.0ZM116.826313306 48.2690111111C116.819775528 45.7666422222 115.069084417 44.5582355556 112.826313306 43.90782L112.826313306 40.0L132.826313306 40.0L132.826313306 42.64476C136.51411775 40.5178422222 140.669886639 40.1402933333 144.826313306 39.9346044444L144.826313306 43.9203155556C138.036615528 44.6827977778 133.74525775 49.4158822222 132.746628862 56.0L116.826313306 56.0L116.826313306 48.2690111111ZM156.653402195 63.95316C156.44295775 56.3842933333 153.681802195 45.1533755556 144.826313306 43.9395888889L144.826313306 39.9409311111C160.000142195 39.7628288889 172.705079973 45.5730511111 172.705079973 60.3333333333L172.845222195 88.0L156.85691775 88.0L156.653402195 63.95316ZM172.826313306 100.0L176.826313306 100.0L176.826313306 104.0L148.826313306 104.0L148.826313306 100.0L156.826313306 100.0L156.826313306 88.0L172.826313306 88.0L172.826313306 100.0ZM172.826313306 120.0L156.826313306 120.0L156.826313306 104.0L172.826313306 104.0L172.826313306 120.0ZM144.826313306 143.777777778L144.826313306 140.057258C153.873833306 138.77952 156.817426639 127.907512667 156.826313306 120.0L172.878088862 120.0C171.857222195 134.413696 158.486093306 143.715030844 144.826313306 143.777777778ZM129.049973306 128.195246667C133.01699775 129.698566667 133.511855528 133.383971111 131.313015528 136.624133333C135.535151084 138.692584444 140.108302195 139.99414 144.826313306 140.0L144.826313306 144.0656C137.375322195 143.857228889 130.128186639 141.403871111 124.41579775 136.589302222C122.451453306 134.933695556 122.439719973 131.571944444 124.241195528 129.589484444C125.280471084 128.4458 127.706119973 127.685988889 129.049973306 128.195246667ZM113.073313306 89.8057444444C102.523975528 94.8824288889 96.6422199726 104.567017778 96.3818688615 116.0C96.4061844171 128.141601556 103.412406639 138.103121556 114.41105775 142.705008089C117.847599973 143.789049153 121.65591775 144.165739216 125.27075775 143.95526734L125.27075775 139.391134444C115.365759973 137.941108667 113.572293306 124.296692667 113.609524417 116.0C113.655968862 105.650273333 115.498304417 92.9040488889 128.129391084 92.4457311111C130.099779973 92.3742355556 130.559788862 92.3728844444 131.317846639 91.9468333333C132.98889775 90.9819511111 133.27075775 89.2989377778 133.27075775 87.5555555556L116.169893306 87.5555555556C115.521284417 88.7227933333 114.218688862 89.2360622222 113.073313306 89.8057444444ZM124.826313306 140.061302222C137.059304417 139.190326667 143.488153306 131.736275556 144.895086639 120.0L148.826313306 120.0L148.826313306 140.0L144.87677775 140.0C144.705108862 138.673248889 144.470062195 137.1939 143.164286639 136.536862222C142.568542195 136.38734 142.592924417 136.371677778 139.831993306 138.677555556C135.556424417 142.27864 130.266566639 143.638464444 124.826313306 144.065566667L124.826313306 140.061302222ZM180.453610778 56.0L196.453610778 56.0L196.453610778 88.0L180.453610778 88.0L180.453610778 56.0ZM196.453610778 79.8873733333L196.453610778 76.1199044444L222.231388556 46.0816844444C222.052639667 45.23756 221.403024112 44.6275644444 220.852015223 44.0L216.453610778 44.0L216.453610778 40.0L236.453610778 40.0L236.453610778 44.0C234.770870778 43.9271355556 233.160264112 44.0656911111 231.750024112 45.0640955556L208.488099667 71.9530022222C217.882319667 80.9488044444 226.622597445 90.65276 236.246844112 99.4091044444C237.530486334 100.052586667 239.047250778 99.9756911111 240.453610778 100.057104444L240.453610778 104.0L220.563193 104.0L196.453610778 79.8873733333ZM180.453610778 56.0L196.574144112 56.0C197.172870778 52.6179266667 198.683817445 48.1219088889 202.738695223 48.0440888889C205.164424112 48.1392644444 205.859284112 50.3418244444 207.288277445 51.7777777778L210.675833 48.9361911111C208.605637445 43.40076 202.448377445 40.1918133333 196.972250778 39.9913866667C186.968697445 39.6252577778 181.831890778 46.5317711111 180.453610778 56.0ZM180.544588556 120.126602222C180.547453 124.349465111 184.083899667 127.877774 188.500450778 127.888629333C192.939181889 127.899539111 196.378693 124.350474 196.385128556 120.004606667C196.391597445 115.636557778 193.042904112 112.125204444 188.453621889 112.103128889C183.842157445 112.080946667 180.541724112 115.903666667 180.544588556 120.126602222ZM200.469015223 96.0464711111L200.469015223 92.0963C198.128448556 91.7343577778 196.940708556 90.1658444444 196.361430778 88.0L180.453610778 88.0L180.453610778 103.989506667L200.469015223 96.0464711111ZM261.314747376 100.0C267.061507376 100.051997778 273.133418487 96.1077177778 273.203636265 90.0C273.279085153 83.2202622222 266.848218487 80.5648311111 260.981414042 80.0020355556C249.237862931 79.9645022222 238.656302931 74.3923377778 234.763938487 66.1961244444C229.805229598 48.5737022222 246.225465153 40.0260444444 261.314747376 40.0L261.314747376 44.0C255.567987376 43.9480022222 249.496076265 47.8922822222 249.425858487 54.0C249.350409598 60.7797377778 255.781276265 63.4351688889 261.648080709 63.9979644444C273.39163182 64.0354977778 283.97319182 69.6076622222 287.865556265 77.8038755556C292.824265153 95.4263 276.40403182 103.973951111 261.314747376 104.0L261.314747376 100.0ZM261.314747376 43.9386977778C273.547738487 44.8096733333 279.976587376 52.2637244444 281.383520709 64.0L285.314747376 64.0L285.314747376 44.0L281.36521182 44.0C281.193542931 45.3267511111 280.958496265 46.8061 279.652720709 47.4631377778C279.056976265 47.61266 279.081358487 47.6283222222 276.320427376 45.3224444444C272.044858487 41.72136 266.755000709 40.3615355556 261.314747376 39.9344333333L261.314747376 43.9386977778ZM245.538407376 88.1952466667C249.50543182 89.6985666667 250.000289598 93.3839711111 247.801449598 96.6241333333C252.023585153 98.6925844444 256.596736265 99.99414 261.314747376 100.0L261.314747376 104.0656C253.863756265 103.857228889 246.616620709 101.403871111 240.90423182 96.5893022222C238.939887376 94.9336955556 238.928154042 91.5719444444 240.729629598 89.5894844444C241.768905153 88.4458 244.194554042 87.6859888889 245.538407376 88.1952466667ZM295.310877983 71.7768377778C295.129671317 56.2457133333 306.777613539 40.0 323.220993539 40.0L323.220993539 43.8948222222C314.900051317 46.1494044444 311.455191317 62.8623777778 311.33210465 72.0C311.498180206 80.9222444444 314.961189094 97.9538088889 323.220993539 100.105177778L323.220993539 104.0C306.21952465 103.857266667 295.479922428 87.5169155556 295.310877983 71.7768377778ZM323.220993539 100.061302222C335.45398465 99.1903266667 341.882833539 91.7362755556 343.289766872 80.0L347.220993539 80.0L347.220993539 100.0L343.271457983 100.0C343.099789094 98.6732488889 342.864742428 97.1939 341.558966872 96.5368622222C340.963222428 96.38734 340.98760465 96.3716777778 338.226673539 98.6775555556C333.95110465 102.27864 328.661246872 103.638464444 323.220993539 104.065566667L323.220993539 100.061302222ZM323.220993539 43.9386977778C335.45398465 44.8096733333 341.882833539 52.2637244444 343.289766872 64.0L347.220993539 64.0L347.220993539 44.0L343.271457983 44.0C343.099789094 45.3267511111 342.864742428 46.8061 341.558966872 47.4631377778C340.963222428 47.61266 340.98760465 47.6283222222 338.226673539 45.3224444444C333.95110465 41.72136 328.661246872 40.3615355556 323.220993539 39.9344333333L323.220993539 43.9386977778ZM409.729110069 88.0L393.729110069 88.0L393.729110069 56.0L409.729110069 56.0L409.729110069 88.0ZM409.729110069 95.7309888889C409.735647847 98.2333577778 411.486338958 99.4417644444 413.729110069 100.09218L413.729110069 104.0L393.729110069 104.0L393.729110069 101.35524C390.041305625 103.482157778 385.885536736 103.859706667 381.729110069 104.065395556L381.729110069 100.079684444C388.518807847 99.3172022222 392.810165625 94.5841177778 393.808794514 88.0L409.729110069 88.0L409.729110069 95.7309888889ZM353.818994514 72.2231622222C353.637787847 87.7542866667 365.285730069 104.0 381.729110069 104.0L381.729110069 100.105177778C373.408167847 97.8505955556 369.963307847 81.1376222222 369.840221181 72.0C370.006296736 63.0777555556 373.469305625 46.0461911111 381.729110069 43.8948222222L381.729110069 40.0C364.727641181 40.1427333333 353.988038958 56.4830844444 353.818994514 72.2231622222ZM409.729110069 48.2690111111C409.735647847 45.7666422222 411.486338958 44.5582355556 413.729110069 43.90782L413.729110069 40.0L393.729110069 40.0L393.729110069 42.64476C390.041305625 40.5178422222 385.885536736 40.1402933333 381.729110069 39.9346044444L381.729110069 43.9203155556C388.518807847 44.6827977778 392.810165625 49.4158822222 393.808794514 56.0L409.729110069 56.0L409.729110069 48.2690111111ZM421.850343403 60.3333333333C423.448385625 44.1140977778 435.674527847 40.0143777778 449.729110069 39.9409311111L449.729110069 43.9395888889C442.392092292 44.7787488889 438.358061181 52.6571288889 438.358061181 58.7903955556L437.698505625 88.0L421.710201181 88.0L421.850343403 60.3333333333ZM421.729110069 104.0L437.729110069 104.0L437.729110069 101.35524C441.416914514 103.482157778 445.572683403 103.859706667 449.729110069 104.065395556L449.729110069 100.079684444C442.941296736 99.3186866667 438.647736736 94.5820333333 437.649425625 88.0L421.729110069 88.0L421.729110069 104.0ZM421.729110069 120.0L437.729110069 120.0L437.729110069 104.0L421.729110069 104.0L421.729110069 120.0ZM409.729110069 143.777777778L409.729110069 140.057258C418.776630069 138.77952 421.720223403 127.907512667 421.729110069 120.0L437.780885625 120.0C436.760018958 134.413696 423.388890069 143.715030844 409.729110069 143.777777778ZM409.729110069 140.061302222C397.496118958 139.190326667 391.067270069 131.736275556 389.660336736 120.0L385.729110069 120.0L385.729110069 140.0L389.678645625 140.0C389.850314514 138.673248889 390.085361181 137.1939 391.391136736 136.536862222C391.986881181 136.38734 391.962498958 136.371677778 394.723430069 138.677555556C398.998998958 142.27864 404.288856736 143.638464444 409.729110069 144.065566667L409.729110069 140.061302222ZM477.639225625 71.7768377778C477.820432292 56.2457133333 466.172490069 40.0 449.729110069 40.0L449.729110069 43.8948222222C458.050052292 46.1494044444 461.494912292 62.8623777778 461.617998958 72.0C461.451923403 80.9222444444 457.988914514 97.9538088889 449.729110069 100.105177778L449.729110069 104.0C466.730578958 103.857266667 477.470181181 87.5169155556 477.639225625 71.7768377778ZM506.6667923 103.744942222C501.150607856 103.168888889 495.490241189 101.256135556 491.294270078 98.5502511111C486.867298967 95.7584822222 483.447741189 91.3363511111 483.447741189 86.0C483.286698967 80.6236355556 487.038547856 76.1997911111 491.369043411 73.3984088889C493.100250078 72.2784977778 496.495394522 70.6273022222 497.932561189 70.2063088889C498.264987856 70.1089311111 498.562190078 69.9172977778 498.877005634 69.7727933333C497.663876745 69.0780933333 496.350154522 68.4854577778 495.130547856 67.7571666667C490.918290078 65.1208111111 487.454850078 61.1162488889 487.454850078 56.0C487.207105634 47.60776 496.413416745 43.0103088889 503.432561189 40.92022C505.541047856 40.4346688889 508.790847856 40.0048844444 510.377005634 40.0018222222L511.321450078 40.0L511.321450078 44.0L510.590361189 44.0C504.297818967 44.3159311111 499.321450078 49.7935688889 499.321450078 56.0C499.237370078 62.2393266667 504.361430078 67.6384288889 510.590361189 68.0C510.834056745 68.0 511.077754522 68.0 511.321450078 68.0L511.321450078 71.9016311111L509.744134522 72.1499977778C504.920094522 72.8176933333 501.521236745 76.7852488889 500.050525634 81.2175377778C499.132696745 84.2112822222 499.058581189 87.7930511111 500.050525634 90.7824622222C500.806421189 93.7795622222 502.651901189 96.14476 504.957081189 98.0152977778C506.741641189 99.4633755556 509.045505634 99.76406 511.321450078 100.098368889L511.321450078 104.0L509.932561189 103.970471111C509.1686723 103.954231111 507.699076745 103.852742222 506.6667923 103.744942222ZM527.097790078 55.8047533333C523.130765634 54.3014333333 522.635907856 50.6160288889 524.834747856 47.3758666667C520.6126123 45.3074155556 516.039461189 44.00586 511.321450078 44.0L511.321450078 39.9344C518.772441189 40.1427711111 526.019576745 42.5961288889 531.731965634 47.4106977778C533.696310078 49.0663044444 533.708043411 52.4280555556 531.906567856 54.4105155556C530.8672923 55.5542 528.441643411 56.3140111111 527.097790078 55.8047533333ZM511.321450078 100.061302222C523.554441189 99.1903266667 529.983290078 91.7362755556 531.390223411 80.0L535.321450078 80.0L535.321450078 100.0L531.371914522 100.0C531.200245634 98.6732488889 530.965198967 97.1939 529.659423411 96.5368622222C529.063678967 96.38734 529.088061189 96.3716777778 526.327130078 98.6775555556C522.051561189 102.27864 516.761703411 103.638464444 511.321450078 104.065566667L511.321450078 100.061302222Z"
       style="stroke:none;fill:#000000" />
    <path
       style="stroke:none;fill:#000000"
       d="M40.05376 8.14765666667L59.9280666667 8.14765666667L59.9280666667 95.9849955556L40.05376 95.9849955556L40.05376 8.14765666667ZM8.0 0.0L92.0 0.0L92.0 16.0L88.0 16.0L87.99512 13.6111111111C88.2037911111 10.5258206667 86.9620088889 8.30533533333 83.90752 8.135866L16.6452977778 8.135866C12.9153555556 8.05868377778 12.1598488889 10.0499642222 12.00488 13.6111111111L12.0 16.0L8.0 16.0L8.0 0.0ZM8.0 88.0L12.0 88.0L12.00488 90.3888888889C11.7945622222 93.4958911111 13.0518444444 95.6752555556 16.1164577778 95.8430866667L83.1033866667 95.8430866667C86.9666644444 95.9641755556 87.8294333333 94.1963177778 87.99512 90.3888888889L88.0 88.0L92.0 88.0L92.0 104.0L8.0 104.0L8.0 88.0ZM116.826313306 56.0L132.826313306 56.0L132.826313306 88.0L116.826313306 88.0L116.826313306 56.0ZM116.826313306 48.2690111111C116.819775528 45.7666422222 115.069084417 44.5582355556 112.826313306 43.90782L112.826313306 40.0L132.826313306 40.0L132.826313306 42.64476C136.51411775 40.5178422222 140.669886639 40.1402933333 144.826313306 39.9346044444L144.826313306 43.9203155556C138.036615528 44.6827977778 133.74525775 49.4158822222 132.746628862 56.0L116.826313306 56.0L116.826313306 48.2690111111ZM156.653402195 63.95316C156.44295775 56.3842933333 153.681802195 45.1533755556 144.826313306 43.9395888889L144.826313306 39.9409311111C160.000142195 39.7628288889 172.705079973 45.5730511111 172.705079973 60.3333333333L172.845222195 88.0L156.85691775 88.0L156.653402195 63.95316ZM172.826313306 100.0L176.826313306 100.0L176.826313306 104.0L148.826313306 104.0L148.826313306 100.0L156.826313306 100.0L156.826313306 88.0L172.826313306 88.0L172.826313306 100.0ZM172.826313306 120.0L156.826313306 120.0L156.826313306 104.0L172.826313306 104.0L172.826313306 120.0ZM144.826313306 143.777777778L144.826313306 140.057258C153.873833306 138.77952 156.817426639 127.907512667 156.826313306 120.0L172.878088862 120.0C171.857222195 134.413696 158.486093306 143.715030844 144.826313306 143.777777778ZM129.049973306 128.195246667C133.01699775 129.698566667 133.511855528 133.383971111 131.313015528 136.624133333C135.535151084 138.692584444 140.108302195 139.99414 144.826313306 140.0L144.826313306 144.0656C137.375322195 143.857228889 130.128186639 141.403871111 124.41579775 136.589302222C122.451453306 134.933695556 122.439719973 131.571944444 124.241195528 129.589484444C125.280471084 128.4458 127.706119973 127.685988889 129.049973306 128.195246667ZM113.073313306 89.8057444444C102.523975528 94.8824288889 96.6422199726 104.567017778 96.3818688615 116.0C96.4061844171 128.141601556 103.412406639 138.103121556 114.41105775 142.705008089C117.847599973 143.789049153 121.65591775 144.165739216 125.27075775 143.95526734L125.27075775 139.391134444C115.365759973 137.941108667 113.572293306 124.296692667 113.609524417 116.0C113.655968862 105.650273333 115.498304417 92.9040488889 128.129391084 92.4457311111C130.099779973 92.3742355556 130.559788862 92.3728844444 131.317846639 91.9468333333C132.98889775 90.9819511111 133.27075775 89.2989377778 133.27075775 87.5555555556L116.169893306 87.5555555556C115.521284417 88.7227933333 114.218688862 89.2360622222 113.073313306 89.8057444444ZM124.826313306 140.061302222C137.059304417 139.190326667 143.488153306 131.736275556 144.895086639 120.0L148.826313306 120.0L148.826313306 140.0L144.87677775 140.0C144.705108862 138.673248889 144.470062195 137.1939 143.164286639 136.536862222C142.568542195 136.38734 142.592924417 136.371677778 139.831993306 138.677555556C135.556424417 142.27864 130.266566639 143.638464444 124.826313306 144.065566667L124.826313306 140.061302222ZM180.453610778 56.0L196.453610778 56.0L196.453610778 88.0L180.453610778 88.0L180.453610778 56.0ZM196.453610778 79.8873733333L196.453610778 76.1199044444L222.231388556 46.0816844444C222.052639667 45.23756 221.403024112 44.6275644444 220.852015223 44.0L216.453610778 44.0L216.453610778 40.0L236.453610778 40.0L236.453610778 44.0C234.770870778 43.9271355556 233.160264112 44.0656911111 231.750024112 45.0640955556L208.488099667 71.9530022222C217.882319667 80.9488044444 226.622597445 90.65276 236.246844112 99.4091044444C237.530486334 100.052586667 239.047250778 99.9756911111 240.453610778 100.057104444L240.453610778 104.0L220.563193 104.0L196.453610778 79.8873733333ZM180.453610778 56.0L196.574144112 56.0C197.172870778 52.6179266667 198.683817445 48.1219088889 202.738695223 48.0440888889C205.164424112 48.1392644444 205.859284112 50.3418244444 207.288277445 51.7777777778L210.675833 48.9361911111C208.605637445 43.40076 202.448377445 40.1918133333 196.972250778 39.9913866667C186.968697445 39.6252577778 181.831890778 46.5317711111 180.453610778 56.0ZM180.544588556 120.126602222C180.547453 124.349465111 184.083899667 127.877774 188.500450778 127.888629333C192.939181889 127.899539111 196.378693 124.350474 196.385128556 120.004606667C196.391597445 115.636557778 193.042904112 112.125204444 188.453621889 112.103128889C183.842157445 112.080946667 180.541724112 115.903666667 180.544588556 120.126602222ZM200.469015223 96.0464711111L200.469015223 92.0963C198.128448556 91.7343577778 196.940708556 90.1658444444 196.361430778 88.0L180.453610778 88.0L180.453610778 103.989506667L200.469015223 96.0464711111ZM261.314747376 100.0C267.061507376 100.051997778 273.133418487 96.1077177778 273.203636265 90.0C273.279085153 83.2202622222 266.848218487 80.5648311111 260.981414042 80.0020355556C249.237862931 79.9645022222 238.656302931 74.3923377778 234.763938487 66.1961244444C229.805229598 48.5737022222 246.225465153 40.0260444444 261.314747376 40.0L261.314747376 44.0C255.567987376 43.9480022222 249.496076265 47.8922822222 249.425858487 54.0C249.350409598 60.7797377778 255.781276265 63.4351688889 261.648080709 63.9979644444C273.39163182 64.0354977778 283.97319182 69.6076622222 287.865556265 77.8038755556C292.824265153 95.4263 276.40403182 103.973951111 261.314747376 104.0L261.314747376 100.0ZM261.314747376 43.9386977778C273.547738487 44.8096733333 279.976587376 52.2637244444 281.383520709 64.0L285.314747376 64.0L285.314747376 44.0L281.36521182 44.0C281.193542931 45.3267511111 280.958496265 46.8061 279.652720709 47.4631377778C279.056976265 47.61266 279.081358487 47.6283222222 276.320427376 45.3224444444C272.044858487 41.72136 266.755000709 40.3615355556 261.314747376 39.9344333333L261.314747376 43.9386977778ZM245.538407376 88.1952466667C249.50543182 89.6985666667 250.000289598 93.3839711111 247.801449598 96.6241333333C252.023585153 98.6925844444 256.596736265 99.99414 261.314747376 100.0L261.314747376 104.0656C253.863756265 103.857228889 246.616620709 101.403871111 240.90423182 96.5893022222C238.939887376 94.9336955556 238.928154042 91.5719444444 240.729629598 89.5894844444C241.768905153 88.4458 244.194554042 87.6859888889 245.538407376 88.1952466667ZM295.310877983 71.7768377778C295.129671317 56.2457133333 306.777613539 40.0 323.220993539 40.0L323.220993539 43.8948222222C314.900051317 46.1494044444 311.455191317 62.8623777778 311.33210465 72.0C311.498180206 80.9222444444 314.961189094 97.9538088889 323.220993539 100.105177778L323.220993539 104.0C306.21952465 103.857266667 295.479922428 87.5169155556 295.310877983 71.7768377778ZM323.220993539 100.061302222C335.45398465 99.1903266667 341.882833539 91.7362755556 343.289766872 80.0L347.220993539 80.0L347.220993539 100.0L343.271457983 100.0C343.099789094 98.6732488889 342.864742428 97.1939 341.558966872 96.5368622222C340.963222428 96.38734 340.98760465 96.3716777778 338.226673539 98.6775555556C333.95110465 102.27864 328.661246872 103.638464444 323.220993539 104.065566667L323.220993539 100.061302222ZM323.220993539 43.9386977778C335.45398465 44.8096733333 341.882833539 52.2637244444 343.289766872 64.0L347.220993539 64.0L347.220993539 44.0L343.271457983 44.0C343.099789094 45.3267511111 342.864742428 46.8061 341.558966872 47.4631377778C340.963222428 47.61266 340.98760465 47.6283222222 338.226673539 45.3224444444C333.95110465 41.72136 328.661246872 40.3615355556 323.220993539 39.9344333333L323.220993539 43.9386977778ZM409.729110069 88.0L393.729110069 88.0L393.729110069 56.0L409.729110069 56.0L409.729110069 88.0ZM409.729110069 95.7309888889C409.735647847 98.2333577778 411.486338958 99.4417644444 413.729110069 100.09218L413.729110069 104.0L393.729110069 104.0L393.729110069 101.35524C390.041305625 103.482157778 385.885536736 103.859706667 381.729110069 104.065395556L381.729110069 100.079684444C388.518807847 99.3172022222 392.810165625 94.5841177778 393.808794514 88.0L409.729110069 88.0L409.729110069 95.7309888889ZM353.818994514 72.2231622222C353.637787847 87.7542866667 365.285730069 104.0 381.729110069 104.0L381.729110069 100.105177778C373.408167847 97.8505955556 369.963307847 81.1376222222 369.840221181 72.0C370.006296736 63.0777555556 373.469305625 46.0461911111 381.729110069 43.8948222222L381.729110069 40.0C364.727641181 40.1427333333 353.988038958 56.4830844444 353.818994514 72.2231622222ZM409.729110069 48.2690111111C409.735647847 45.7666422222 411.486338958 44.5582355556 413.729110069 43.90782L413.729110069 40.0L393.729110069 40.0L393.729110069 42.64476C390.041305625 40.5178422222 385.885536736 40.1402933333 381.729110069 39.9346044444L381.729110069 43.9203155556C388.518807847 44.6827977778 392.810165625 49.4158822222 393.808794514 56.0L409.729110069 56.0L409.729110069 48.2690111111ZM421.850343403 60.3333333333C423.448385625 44.1140977778 435.674527847 40.0143777778 449.729110069 39.9409311111L449.729110069 43.9395888889C442.392092292 44.7787488889 438.358061181 52.6571288889 438.358061181 58.7903955556L437.698505625 88.0L421.710201181 88.0L421.850343403 60.3333333333ZM421.729110069 104.0L437.729110069 104.0L437.729110069 101.35524C441.416914514 103.482157778 445.572683403 103.859706667 449.729110069 104.065395556L449.729110069 100.079684444C442.941296736 99.3186866667 438.647736736 94.5820333333 437.649425625 88.0L421.729110069 88.0L421.729110069 104.0ZM421.729110069 120.0L437.729110069 120.0L437.729110069 104.0L421.729110069 104.0L421.729110069 120.0ZM409.729110069 143.777777778L409.729110069 140.057258C418.776630069 138.77952 421.720223403 127.907512667 421.729110069 120.0L437.780885625 120.0C436.760018958 134.413696 423.388890069 143.715030844 409.729110069 143.777777778ZM409.729110069 140.061302222C397.496118958 139.190326667 391.067270069 131.736275556 389.660336736 120.0L385.729110069 120.0L385.729110069 140.0L389.678645625 140.0C389.850314514 138.673248889 390.085361181 137.1939 391.391136736 136.536862222C391.986881181 136.38734 391.962498958 136.371677778 394.723430069 138.677555556C398.998998958 142.27864 404.288856736 143.638464444 409.729110069 144.065566667L409.729110069 140.061302222ZM477.639225625 71.7768377778C477.820432292 56.2457133333 466.172490069 40.0 449.729110069 40.0L449.729110069 43.8948222222C458.050052292 46.1494044444 461.494912292 62.8623777778 461.617998958 72.0C461.451923403 80.9222444444 457.988914514 97.9538088889 449.729110069 100.105177778L449.729110069 104.0C466.730578958 103.857266667 477.470181181 87.5169155556 477.639225625 71.7768377778ZM506.6667923 103.744942222C501.150607856 103.168888889 495.490241189 101.256135556 491.294270078 98.5502511111C486.867298967 95.7584822222 483.447741189 91.3363511111 483.447741189 86.0C483.286698967 80.6236355556 487.038547856 76.1997911111 491.369043411 73.3984088889C493.100250078 72.2784977778 496.495394522 70.6273022222 497.932561189 70.2063088889C498.264987856 70.1089311111 498.562190078 69.9172977778 498.877005634 69.7727933333C497.663876745 69.0780933333 496.350154522 68.4854577778 495.130547856 67.7571666667C490.918290078 65.1208111111 487.454850078 61.1162488889 487.454850078 56.0C487.207105634 47.60776 496.413416745 43.0103088889 503.432561189 40.92022C505.541047856 40.4346688889 508.790847856 40.0048844444 510.377005634 40.0018222222L511.321450078 40.0L511.321450078 44.0L510.590361189 44.0C504.297818967 44.3159311111 499.321450078 49.7935688889 499.321450078 56.0C499.237370078 62.2393266667 504.361430078 67.6384288889 510.590361189 68.0C510.834056745 68.0 511.077754522 68.0 511.321450078 68.0L511.321450078 71.9016311111L509.744134522 72.1499977778C504.920094522 72.8176933333 501.521236745 76.7852488889 500.050525634 81.2175377778C499.132696745 84.2112822222 499.058581189 87.7930511111 500.050525634 90.7824622222C500.806421189 93.7795622222 502.651901189 96.14476 504.957081189 98.0152977778C506.741641189 99.4633755556 509.045505634 99.76406 511.321450078 100.098368889L511.321450078 104.0L509.932561189 103.970471111C509.1686723 103.954231111 507.699076745 103.852742222 506.6667923 103.744942222ZM527.097790078 55.8047533333C523.130765634 54.3014333333 522.635907856 50.6160288889 524.834747856 47.3758666667C520.6126123 45.3074155556 516.039461189 44.00586 511.321450078 44.0L511.321450078 39.9344C518.772441189 40.1427711111 526.019576745 42.5961288889 531.731965634 47.4106977778C533.696310078 49.0663044444 533.708043411 52.4280555556 531.906567856 54.4105155556C530.8672923 55.5542 528.441643411 56.3140111111 527.097790078 55.8047533333ZM511.321450078 100.061302222C523.554441189 99.1903266667 529.983290078 91.7362755556 531.390223411 80.0L535.321450078 80.0L535.321450078 100.0L531.371914522 100.0C531.200245634 98.6732488889 530.965198967 97.1939 529.659423411 96.5368622222C529.063678967 96.38734 529.088061189 96.3716777778 526.327130078 98.6775555556C522.051561189 102.27864 516.761703411 103.638464444 511.321450078 104.065566667L511.321450078 100.061302222Z"
       id="path2874" />
    <path
       id="path2898"
       d="M40.05376 8.14765666667L59.9280666667 8.14765666667L59.9280666667 95.9849955556L40.05376 95.9849955556L40.05376 8.14765666667ZM8.0 0.0L92.0 0.0L92.0 16.0L88.0 16.0L87.99512 13.6111111111C88.2037911111 10.5258206667 86.9620088889 8.30533533333 83.90752 8.135866L16.6452977778 8.135866C12.9153555556 8.05868377778 12.1598488889 10.0499642222 12.00488 13.6111111111L12.0 16.0L8.0 16.0L8.0 0.0ZM8.0 88.0L12.0 88.0L12.00488 90.3888888889C11.7945622222 93.4958911111 13.0518444444 95.6752555556 16.1164577778 95.8430866667L83.1033866667 95.8430866667C86.9666644444 95.9641755556 87.8294333333 94.1963177778 87.99512 90.3888888889L88.0 88.0L92.0 88.0L92.0 104.0L8.0 104.0L8.0 88.0ZM116.826313306 56.0L132.826313306 56.0L132.826313306 88.0L116.826313306 88.0L116.826313306 56.0ZM116.826313306 48.2690111111C116.819775528 45.7666422222 115.069084417 44.5582355556 112.826313306 43.90782L112.826313306 40.0L132.826313306 40.0L132.826313306 42.64476C136.51411775 40.5178422222 140.669886639 40.1402933333 144.826313306 39.9346044444L144.826313306 43.9203155556C138.036615528 44.6827977778 133.74525775 49.4158822222 132.746628862 56.0L116.826313306 56.0L116.826313306 48.2690111111ZM156.653402195 63.95316C156.44295775 56.3842933333 153.681802195 45.1533755556 144.826313306 43.9395888889L144.826313306 39.9409311111C160.000142195 39.7628288889 172.705079973 45.5730511111 172.705079973 60.3333333333L172.845222195 88.0L156.85691775 88.0L156.653402195 63.95316ZM172.826313306 100.0L176.826313306 100.0L176.826313306 104.0L148.826313306 104.0L148.826313306 100.0L156.826313306 100.0L156.826313306 88.0L172.826313306 88.0L172.826313306 100.0ZM172.826313306 120.0L156.826313306 120.0L156.826313306 104.0L172.826313306 104.0L172.826313306 120.0ZM144.826313306 143.777777778L144.826313306 140.057258C153.873833306 138.77952 156.817426639 127.907512667 156.826313306 120.0L172.878088862 120.0C171.857222195 134.413696 158.486093306 143.715030844 144.826313306 143.777777778ZM129.049973306 128.195246667C133.01699775 129.698566667 133.511855528 133.383971111 131.313015528 136.624133333C135.535151084 138.692584444 140.108302195 139.99414 144.826313306 140.0L144.826313306 144.0656C137.375322195 143.857228889 130.128186639 141.403871111 124.41579775 136.589302222C122.451453306 134.933695556 122.439719973 131.571944444 124.241195528 129.589484444C125.280471084 128.4458 127.706119973 127.685988889 129.049973306 128.195246667ZM113.073313306 89.8057444444C102.523975528 94.8824288889 96.6422199726 104.567017778 96.3818688615 116.0C96.4061844171 128.141601556 103.412406639 138.103121556 114.41105775 142.705008089C117.847599973 143.789049153 121.65591775 144.165739216 125.27075775 143.95526734L125.27075775 139.391134444C115.365759973 137.941108667 113.572293306 124.296692667 113.609524417 116.0C113.655968862 105.650273333 115.498304417 92.9040488889 128.129391084 92.4457311111C130.099779973 92.3742355556 130.559788862 92.3728844444 131.317846639 91.9468333333C132.98889775 90.9819511111 133.27075775 89.2989377778 133.27075775 87.5555555556L116.169893306 87.5555555556C115.521284417 88.7227933333 114.218688862 89.2360622222 113.073313306 89.8057444444ZM124.826313306 140.061302222C137.059304417 139.190326667 143.488153306 131.736275556 144.895086639 120.0L148.826313306 120.0L148.826313306 140.0L144.87677775 140.0C144.705108862 138.673248889 144.470062195 137.1939 143.164286639 136.536862222C142.568542195 136.38734 142.592924417 136.371677778 139.831993306 138.677555556C135.556424417 142.27864 130.266566639 143.638464444 124.826313306 144.065566667L124.826313306 140.061302222ZM180.453610778 56.0L196.453610778 56.0L196.453610778 88.0L180.453610778 88.0L180.453610778 56.0ZM196.453610778 79.8873733333L196.453610778 76.1199044444L222.231388556 46.0816844444C222.052639667 45.23756 221.403024112 44.6275644444 220.852015223 44.0L216.453610778 44.0L216.453610778 40.0L236.453610778 40.0L236.453610778 44.0C234.770870778 43.9271355556 233.160264112 44.0656911111 231.750024112 45.0640955556L208.488099667 71.9530022222C217.882319667 80.9488044444 226.622597445 90.65276 236.246844112 99.4091044444C237.530486334 100.052586667 239.047250778 99.9756911111 240.453610778 100.057104444L240.453610778 104.0L220.563193 104.0L196.453610778 79.8873733333ZM180.453610778 56.0L196.574144112 56.0C197.172870778 52.6179266667 198.683817445 48.1219088889 202.738695223 48.0440888889C205.164424112 48.1392644444 205.859284112 50.3418244444 207.288277445 51.7777777778L210.675833 48.9361911111C208.605637445 43.40076 202.448377445 40.1918133333 196.972250778 39.9913866667C186.968697445 39.6252577778 181.831890778 46.5317711111 180.453610778 56.0ZM180.544588556 120.126602222C180.547453 124.349465111 184.083899667 127.877774 188.500450778 127.888629333C192.939181889 127.899539111 196.378693 124.350474 196.385128556 120.004606667C196.391597445 115.636557778 193.042904112 112.125204444 188.453621889 112.103128889C183.842157445 112.080946667 180.541724112 115.903666667 180.544588556 120.126602222ZM200.469015223 96.0464711111L200.469015223 92.0963C198.128448556 91.7343577778 196.940708556 90.1658444444 196.361430778 88.0L180.453610778 88.0L180.453610778 103.989506667L200.469015223 96.0464711111ZM261.314747376 100.0C267.061507376 100.051997778 273.133418487 96.1077177778 273.203636265 90.0C273.279085153 83.2202622222 266.848218487 80.5648311111 260.981414042 80.0020355556C249.237862931 79.9645022222 238.656302931 74.3923377778 234.763938487 66.1961244444C229.805229598 48.5737022222 246.225465153 40.0260444444 261.314747376 40.0L261.314747376 44.0C255.567987376 43.9480022222 249.496076265 47.8922822222 249.425858487 54.0C249.350409598 60.7797377778 255.781276265 63.4351688889 261.648080709 63.9979644444C273.39163182 64.0354977778 283.97319182 69.6076622222 287.865556265 77.8038755556C292.824265153 95.4263 276.40403182 103.973951111 261.314747376 104.0L261.314747376 100.0ZM261.314747376 43.9386977778C273.547738487 44.8096733333 279.976587376 52.2637244444 281.383520709 64.0L285.314747376 64.0L285.314747376 44.0L281.36521182 44.0C281.193542931 45.3267511111 280.958496265 46.8061 279.652720709 47.4631377778C279.056976265 47.61266 279.081358487 47.6283222222 276.320427376 45.3224444444C272.044858487 41.72136 266.755000709 40.3615355556 261.314747376 39.9344333333L261.314747376 43.9386977778ZM245.538407376 88.1952466667C249.50543182 89.6985666667 250.000289598 93.3839711111 247.801449598 96.6241333333C252.023585153 98.6925844444 256.596736265 99.99414 261.314747376 100.0L261.314747376 104.0656C253.863756265 103.857228889 246.616620709 101.403871111 240.90423182 96.5893022222C238.939887376 94.9336955556 238.928154042 91.5719444444 240.729629598 89.5894844444C241.768905153 88.4458 244.194554042 87.6859888889 245.538407376 88.1952466667ZM295.310877983 71.7768377778C295.129671317 56.2457133333 306.777613539 40.0 323.220993539 40.0L323.220993539 43.8948222222C314.900051317 46.1494044444 311.455191317 62.8623777778 311.33210465 72.0C311.498180206 80.9222444444 314.961189094 97.9538088889 323.220993539 100.105177778L323.220993539 104.0C306.21952465 103.857266667 295.479922428 87.5169155556 295.310877983 71.7768377778ZM323.220993539 100.061302222C335.45398465 99.1903266667 341.882833539 91.7362755556 343.289766872 80.0L347.220993539 80.0L347.220993539 100.0L343.271457983 100.0C343.099789094 98.6732488889 342.864742428 97.1939 341.558966872 96.5368622222C340.963222428 96.38734 340.98760465 96.3716777778 338.226673539 98.6775555556C333.95110465 102.27864 328.661246872 103.638464444 323.220993539 104.065566667L323.220993539 100.061302222ZM323.220993539 43.9386977778C335.45398465 44.8096733333 341.882833539 52.2637244444 343.289766872 64.0L347.220993539 64.0L347.220993539 44.0L343.271457983 44.0C343.099789094 45.3267511111 342.864742428 46.8061 341.558966872 47.4631377778C340.963222428 47.61266 340.98760465 47.6283222222 338.226673539 45.3224444444C333.95110465 41.72136 328.661246872 40.3615355556 323.220993539 39.9344333333L323.220993539 43.9386977778ZM409.729110069 88.0L393.729110069 88.0L393.729110069 56.0L409.729110069 56.0L409.729110069 88.0ZM409.729110069 95.7309888889C409.735647847 98.2333577778 411.486338958 99.4417644444 413.729110069 100.09218L413.729110069 104.0L393.729110069 104.0L393.729110069 101.35524C390.041305625 103.482157778 385.885536736 103.859706667 381.729110069 104.065395556L381.729110069 100.079684444C388.518807847 99.3172022222 392.810165625 94.5841177778 393.808794514 88.0L409.729110069 88.0L409.729110069 95.7309888889ZM353.818994514 72.2231622222C353.637787847 87.7542866667 365.285730069 104.0 381.729110069 104.0L381.729110069 100.105177778C373.408167847 97.8505955556 369.963307847 81.1376222222 369.840221181 72.0C370.006296736 63.0777555556 373.469305625 46.0461911111 381.729110069 43.8948222222L381.729110069 40.0C364.727641181 40.1427333333 353.988038958 56.4830844444 353.818994514 72.2231622222ZM409.729110069 48.2690111111C409.735647847 45.7666422222 411.486338958 44.5582355556 413.729110069 43.90782L413.729110069 40.0L393.729110069 40.0L393.729110069 42.64476C390.041305625 40.5178422222 385.885536736 40.1402933333 381.729110069 39.9346044444L381.729110069 43.9203155556C388.518807847 44.6827977778 392.810165625 49.4158822222 393.808794514 56.0L409.729110069 56.0L409.729110069 48.2690111111ZM421.850343403 60.3333333333C423.448385625 44.1140977778 435.674527847 40.0143777778 449.729110069 39.9409311111L449.729110069 43.9395888889C442.392092292 44.7787488889 438.358061181 52.6571288889 438.358061181 58.7903955556L437.698505625 88.0L421.710201181 88.0L421.850343403 60.3333333333ZM421.729110069 104.0L437.729110069 104.0L437.729110069 101.35524C441.416914514 103.482157778 445.572683403 103.859706667 449.729110069 104.065395556L449.729110069 100.079684444C442.941296736 99.3186866667 438.647736736 94.5820333333 437.649425625 88.0L421.729110069 88.0L421.729110069 104.0ZM421.729110069 120.0L437.729110069 120.0L437.729110069 104.0L421.729110069 104.0L421.729110069 120.0ZM409.729110069 143.777777778L409.729110069 140.057258C418.776630069 138.77952 421.720223403 127.907512667 421.729110069 120.0L437.780885625 120.0C436.760018958 134.413696 423.388890069 143.715030844 409.729110069 143.777777778ZM409.729110069 140.061302222C397.496118958 139.190326667 391.067270069 131.736275556 389.660336736 120.0L385.729110069 120.0L385.729110069 140.0L389.678645625 140.0C389.850314514 138.673248889 390.085361181 137.1939 391.391136736 136.536862222C391.986881181 136.38734 391.962498958 136.371677778 394.723430069 138.677555556C398.998998958 142.27864 404.288856736 143.638464444 409.729110069 144.065566667L409.729110069 140.061302222ZM477.639225625 71.7768377778C477.820432292 56.2457133333 466.172490069 40.0 449.729110069 40.0L449.729110069 43.8948222222C458.050052292 46.1494044444 461.494912292 62.8623777778 461.617998958 72.0C461.451923403 80.9222444444 457.988914514 97.9538088889 449.729110069 100.105177778L449.729110069 104.0C466.730578958 103.857266667 477.470181181 87.5169155556 477.639225625 71.7768377778ZM506.6667923 103.744942222C501.150607856 103.168888889 495.490241189 101.256135556 491.294270078 98.5502511111C486.867298967 95.7584822222 483.447741189 91.3363511111 483.447741189 86.0C483.286698967 80.6236355556 487.038547856 76.1997911111 491.369043411 73.3984088889C493.100250078 72.2784977778 496.495394522 70.6273022222 497.932561189 70.2063088889C498.264987856 70.1089311111 498.562190078 69.9172977778 498.877005634 69.7727933333C497.663876745 69.0780933333 496.350154522 68.4854577778 495.130547856 67.7571666667C490.918290078 65.1208111111 487.454850078 61.1162488889 487.454850078 56.0C487.207105634 47.60776 496.413416745 43.0103088889 503.432561189 40.92022C505.541047856 40.4346688889 508.790847856 40.0048844444 510.377005634 40.0018222222L511.321450078 40.0L511.321450078 44.0L510.590361189 44.0C504.297818967 44.3159311111 499.321450078 49.7935688889 499.321450078 56.0C499.237370078 62.2393266667 504.361430078 67.6384288889 510.590361189 68.0C510.834056745 68.0 511.077754522 68.0 511.321450078 68.0L511.321450078 71.9016311111L509.744134522 72.1499977778C504.920094522 72.8176933333 501.521236745 76.7852488889 500.050525634 81.2175377778C499.132696745 84.2112822222 499.058581189 87.7930511111 500.050525634 90.7824622222C500.806421189 93.7795622222 502.651901189 96.14476 504.957081189 98.0152977778C506.741641189 99.4633755556 509.045505634 99.76406 511.321450078 100.098368889L511.321450078 104.0L509.932561189 103.970471111C509.1686723 103.954231111 507.699076745 103.852742222 506.6667923 103.744942222ZM527.097790078 55.8047533333C523.130765634 54.3014333333 522.635907856 50.6160288889 524.834747856 47.3758666667C520.6126123 45.3074155556 516.039461189 44.00586 511.321450078 44.0L511.321450078 39.9344C518.772441189 40.1427711111 526.019576745 42.5961288889 531.731965634 47.4106977778C533.696310078 49.0663044444 533.708043411 52.4280555556 531.906567856 54.4105155556C530.8672923 55.5542 528.441643411 56.3140111111 527.097790078 55.8047533333ZM511.321450078 100.061302222C523.554441189 99.1903266667 529.983290078 91.7362755556 531.390223411 80.0L535.321450078 80.0L535.321450078 100.0L531.371914522 100.0C531.200245634 98.6732488889 530.965198967 97.1939 529.659423411 96.5368622222C529.063678967 96.38734 529.088061189 96.3716777778 526.327130078 98.6775555556C522.051561189 102.27864 516.761703411 103.638464444 511.321450078 104.065566667L511.321450078 100.061302222Z"
       style="stroke:none;fill:#000000" />
  </g>
</svg>
